<mxfile host="app.diagrams.net" agent="Mozilla/5.0 (Windows NT 10.0; Win64; x64) AppleWebKit/537.36 (KHTML, like Gecko) Chrome/133.0.0.0 Safari/537.36 Edg/133.0.0.0" version="26.1.0">
  <diagram name="第 1 页" id="bmzKNng-rrpsyb5RVESx">
    <mxGraphModel dx="2216" dy="1933" grid="1" gridSize="10" guides="1" tooltips="1" connect="1" arrows="1" fold="1" page="1" pageScale="1" pageWidth="827" pageHeight="1169" math="0" shadow="0">
      <root>
        <mxCell id="0" />
        <mxCell id="1" parent="0" />
        <mxCell id="3AfXpyfYwZX1VfCHbFkM-2" value="" style="rounded=0;whiteSpace=wrap;html=1;dashed=1;" vertex="1" parent="1">
          <mxGeometry x="230" y="190" width="530" height="320" as="geometry" />
        </mxCell>
        <mxCell id="3AfXpyfYwZX1VfCHbFkM-18" value="游戏主机1" style="rounded=0;whiteSpace=wrap;html=1;fillColor=#dae8fc;strokeColor=#6c8ebf;align=left;verticalAlign=top;" vertex="1" parent="1">
          <mxGeometry x="440" y="210" width="190" height="140" as="geometry" />
        </mxCell>
        <mxCell id="3AfXpyfYwZX1VfCHbFkM-5" style="rounded=0;orthogonalLoop=1;jettySize=auto;html=1;exitX=0.5;exitY=0;exitDx=0;exitDy=0;entryX=0.5;entryY=1;entryDx=0;entryDy=0;edgeStyle=orthogonalEdgeStyle;endArrow=none;startFill=0;" edge="1" parent="1" source="3AfXpyfYwZX1VfCHbFkM-1" target="3AfXpyfYwZX1VfCHbFkM-3">
          <mxGeometry relative="1" as="geometry" />
        </mxCell>
        <mxCell id="3AfXpyfYwZX1VfCHbFkM-16" style="edgeStyle=orthogonalEdgeStyle;rounded=0;orthogonalLoop=1;jettySize=auto;html=1;exitX=1;exitY=0.5;exitDx=0;exitDy=0;entryX=0;entryY=0.5;entryDx=0;entryDy=0;endArrow=none;startFill=0;" edge="1" parent="1" source="3AfXpyfYwZX1VfCHbFkM-1" target="3AfXpyfYwZX1VfCHbFkM-4">
          <mxGeometry relative="1" as="geometry" />
        </mxCell>
        <mxCell id="3AfXpyfYwZX1VfCHbFkM-26" style="edgeStyle=orthogonalEdgeStyle;rounded=0;orthogonalLoop=1;jettySize=auto;html=1;exitX=0;exitY=0.5;exitDx=0;exitDy=0;entryX=0.5;entryY=0;entryDx=0;entryDy=0;" edge="1" parent="1" source="3AfXpyfYwZX1VfCHbFkM-1" target="3AfXpyfYwZX1VfCHbFkM-12">
          <mxGeometry relative="1" as="geometry" />
        </mxCell>
        <mxCell id="3AfXpyfYwZX1VfCHbFkM-42" style="edgeStyle=orthogonalEdgeStyle;rounded=0;orthogonalLoop=1;jettySize=auto;html=1;exitX=0.5;exitY=1;exitDx=0;exitDy=0;endArrow=none;startFill=0;" edge="1" parent="1" source="3AfXpyfYwZX1VfCHbFkM-1" target="3AfXpyfYwZX1VfCHbFkM-13">
          <mxGeometry relative="1" as="geometry" />
        </mxCell>
        <mxCell id="3AfXpyfYwZX1VfCHbFkM-1" value="游戏服务" style="rounded=0;whiteSpace=wrap;html=1;align=left;verticalAlign=top;" vertex="1" parent="1">
          <mxGeometry x="510" y="230" width="110" height="40" as="geometry" />
        </mxCell>
        <mxCell id="3AfXpyfYwZX1VfCHbFkM-3" value="云端服务器" style="shape=process;whiteSpace=wrap;html=1;backgroundOutline=1;" vertex="1" parent="1">
          <mxGeometry x="310" y="-20" width="330" height="110" as="geometry" />
        </mxCell>
        <mxCell id="3AfXpyfYwZX1VfCHbFkM-4" value="线下管理界面" style="rounded=0;whiteSpace=wrap;html=1;" vertex="1" parent="1">
          <mxGeometry x="800" y="230" width="100" height="40" as="geometry" />
        </mxCell>
        <mxCell id="3AfXpyfYwZX1VfCHbFkM-7" value="数据库" style="rounded=0;whiteSpace=wrap;html=1;" vertex="1" parent="1">
          <mxGeometry x="350" y="-10" width="70" height="40" as="geometry" />
        </mxCell>
        <mxCell id="3AfXpyfYwZX1VfCHbFkM-8" value="小程序" style="rounded=0;whiteSpace=wrap;html=1;" vertex="1" parent="1">
          <mxGeometry x="800" y="-70" width="60" height="40" as="geometry" />
        </mxCell>
        <mxCell id="3AfXpyfYwZX1VfCHbFkM-9" value="汇总管理界面" style="rounded=0;whiteSpace=wrap;html=1;" vertex="1" parent="1">
          <mxGeometry x="800" y="80" width="80" height="40" as="geometry" />
        </mxCell>
        <mxCell id="3AfXpyfYwZX1VfCHbFkM-11" style="edgeStyle=orthogonalEdgeStyle;rounded=0;orthogonalLoop=1;jettySize=auto;html=1;exitX=0.5;exitY=1;exitDx=0;exitDy=0;entryX=0;entryY=0.75;entryDx=0;entryDy=0;endArrow=none;startFill=0;" edge="1" parent="1" source="3AfXpyfYwZX1VfCHbFkM-10" target="3AfXpyfYwZX1VfCHbFkM-9">
          <mxGeometry relative="1" as="geometry" />
        </mxCell>
        <mxCell id="3AfXpyfYwZX1VfCHbFkM-10" value="云端WEB服务" style="rounded=0;whiteSpace=wrap;html=1;" vertex="1" parent="1">
          <mxGeometry x="510" y="50" width="80" height="30" as="geometry" />
        </mxCell>
        <mxCell id="3AfXpyfYwZX1VfCHbFkM-20" style="edgeStyle=orthogonalEdgeStyle;rounded=0;orthogonalLoop=1;jettySize=auto;html=1;exitX=0.5;exitY=1;exitDx=0;exitDy=0;" edge="1" parent="1" source="3AfXpyfYwZX1VfCHbFkM-12" target="3AfXpyfYwZX1VfCHbFkM-17">
          <mxGeometry relative="1" as="geometry" />
        </mxCell>
        <mxCell id="3AfXpyfYwZX1VfCHbFkM-12" value="游戏程序" style="rounded=0;whiteSpace=wrap;html=1;" vertex="1" parent="1">
          <mxGeometry x="450" y="290" width="50" height="50" as="geometry" />
        </mxCell>
        <mxCell id="3AfXpyfYwZX1VfCHbFkM-39" style="edgeStyle=orthogonalEdgeStyle;rounded=0;orthogonalLoop=1;jettySize=auto;html=1;exitX=1;exitY=0.5;exitDx=0;exitDy=0;entryX=0;entryY=0.5;entryDx=0;entryDy=0;endArrow=none;startFill=0;" edge="1" parent="1" source="3AfXpyfYwZX1VfCHbFkM-13" target="3AfXpyfYwZX1VfCHbFkM-38">
          <mxGeometry relative="1" as="geometry" />
        </mxCell>
        <mxCell id="3AfXpyfYwZX1VfCHbFkM-13" value="显示器主机" style="rounded=0;whiteSpace=wrap;html=1;fillColor=#dae8fc;strokeColor=#6c8ebf;" vertex="1" parent="1">
          <mxGeometry x="650" y="360" width="80" height="50" as="geometry" />
        </mxCell>
        <mxCell id="3AfXpyfYwZX1VfCHbFkM-15" style="edgeStyle=orthogonalEdgeStyle;rounded=0;orthogonalLoop=1;jettySize=auto;html=1;exitX=0;exitY=0.5;exitDx=0;exitDy=0;entryX=0.592;entryY=-0.002;entryDx=0;entryDy=0;entryPerimeter=0;endArrow=none;startFill=0;" edge="1" parent="1" source="3AfXpyfYwZX1VfCHbFkM-8" target="3AfXpyfYwZX1VfCHbFkM-3">
          <mxGeometry relative="1" as="geometry" />
        </mxCell>
        <mxCell id="3AfXpyfYwZX1VfCHbFkM-22" value="&lt;span style=&quot;color: rgb(0, 0, 0); font-family: Helvetica; font-size: 12px; font-style: normal; font-variant-ligatures: normal; font-variant-caps: normal; font-weight: 400; letter-spacing: normal; orphans: 2; text-indent: 0px; text-transform: none; widows: 2; word-spacing: 0px; -webkit-text-stroke-width: 0px; white-space: normal; background-color: rgb(251, 251, 251); text-decoration-thickness: initial; text-decoration-style: initial; text-decoration-color: initial; float: none; display: inline !important;&quot;&gt;游戏主机2&lt;/span&gt;" style="rounded=0;whiteSpace=wrap;html=1;fillColor=#dae8fc;strokeColor=#6c8ebf;align=left;verticalAlign=top;" vertex="1" parent="1">
          <mxGeometry x="260" y="210" width="150" height="140" as="geometry" />
        </mxCell>
        <mxCell id="3AfXpyfYwZX1VfCHbFkM-17" value="游戏房间" style="rounded=0;whiteSpace=wrap;html=1;" vertex="1" parent="1">
          <mxGeometry x="440" y="400" width="160" height="80" as="geometry" />
        </mxCell>
        <mxCell id="3AfXpyfYwZX1VfCHbFkM-41" style="edgeStyle=orthogonalEdgeStyle;rounded=0;orthogonalLoop=1;jettySize=auto;html=1;exitX=1;exitY=0.5;exitDx=0;exitDy=0;entryX=0;entryY=0.5;entryDx=0;entryDy=0;endArrow=none;startFill=0;" edge="1" parent="1" source="3AfXpyfYwZX1VfCHbFkM-19" target="3AfXpyfYwZX1VfCHbFkM-40">
          <mxGeometry relative="1" as="geometry" />
        </mxCell>
        <mxCell id="3AfXpyfYwZX1VfCHbFkM-19" value="显示器主机" style="rounded=0;whiteSpace=wrap;html=1;fillColor=#dae8fc;strokeColor=#6c8ebf;" vertex="1" parent="1">
          <mxGeometry x="650" y="430" width="80" height="50" as="geometry" />
        </mxCell>
        <mxCell id="3AfXpyfYwZX1VfCHbFkM-30" style="edgeStyle=orthogonalEdgeStyle;rounded=0;orthogonalLoop=1;jettySize=auto;html=1;exitX=0.25;exitY=0;exitDx=0;exitDy=0;entryX=0.25;entryY=1;entryDx=0;entryDy=0;endArrow=none;startFill=0;" edge="1" parent="1" source="3AfXpyfYwZX1VfCHbFkM-21" target="3AfXpyfYwZX1VfCHbFkM-3">
          <mxGeometry relative="1" as="geometry" />
        </mxCell>
        <mxCell id="3AfXpyfYwZX1VfCHbFkM-21" value="门店2" style="rounded=0;whiteSpace=wrap;html=1;dashed=1;" vertex="1" parent="1">
          <mxGeometry x="-100" y="190" width="300" height="320" as="geometry" />
        </mxCell>
        <mxCell id="3AfXpyfYwZX1VfCHbFkM-25" style="edgeStyle=orthogonalEdgeStyle;rounded=0;orthogonalLoop=1;jettySize=auto;html=1;exitX=0.5;exitY=1;exitDx=0;exitDy=0;entryX=0.5;entryY=0;entryDx=0;entryDy=0;" edge="1" parent="1" source="3AfXpyfYwZX1VfCHbFkM-23" target="3AfXpyfYwZX1VfCHbFkM-24">
          <mxGeometry relative="1" as="geometry" />
        </mxCell>
        <mxCell id="3AfXpyfYwZX1VfCHbFkM-23" value="游戏程序" style="rounded=0;whiteSpace=wrap;html=1;" vertex="1" parent="1">
          <mxGeometry x="270" y="290" width="50" height="50" as="geometry" />
        </mxCell>
        <mxCell id="3AfXpyfYwZX1VfCHbFkM-24" value="游戏房间" style="rounded=0;whiteSpace=wrap;html=1;" vertex="1" parent="1">
          <mxGeometry x="260" y="400" width="160" height="80" as="geometry" />
        </mxCell>
        <mxCell id="3AfXpyfYwZX1VfCHbFkM-29" style="edgeStyle=orthogonalEdgeStyle;rounded=0;orthogonalLoop=1;jettySize=auto;html=1;exitX=0;exitY=0;exitDx=0;exitDy=0;entryX=0.5;entryY=0;entryDx=0;entryDy=0;" edge="1" parent="1" source="3AfXpyfYwZX1VfCHbFkM-1" target="3AfXpyfYwZX1VfCHbFkM-23">
          <mxGeometry relative="1" as="geometry">
            <Array as="points">
              <mxPoint x="510" y="250" />
              <mxPoint x="295" y="250" />
            </Array>
          </mxGeometry>
        </mxCell>
        <mxCell id="3AfXpyfYwZX1VfCHbFkM-33" value="升级" style="rounded=0;whiteSpace=wrap;html=1;fillColor=#f8cecc;strokeColor=#b85450;" vertex="1" parent="1">
          <mxGeometry y="-20" width="130" height="40" as="geometry" />
        </mxCell>
        <mxCell id="3AfXpyfYwZX1VfCHbFkM-38" value="线下排队画面" style="rounded=0;whiteSpace=wrap;html=1;" vertex="1" parent="1">
          <mxGeometry x="800" y="365" width="100" height="40" as="geometry" />
        </mxCell>
        <mxCell id="3AfXpyfYwZX1VfCHbFkM-40" value="播放的视频文字等" style="rounded=0;whiteSpace=wrap;html=1;" vertex="1" parent="1">
          <mxGeometry x="800" y="435" width="100" height="40" as="geometry" />
        </mxCell>
      </root>
    </mxGraphModel>
  </diagram>
</mxfile>
